<?xml version="1.0" encoding="iso-8859-1"?>
<!-- Generator: Adobe Illustrator 19.0.0, SVG Export Plug-In . SVG Version: 6.00 Build 0)  -->
<svg version="1.1" id="Layer_1" xmlns="http://www.w3.org/2000/svg" xmlns:xlink="http://www.w3.org/1999/xlink" x="0px" y="0px"
	 viewBox="0 0 511.947 511.947" style="enable-background:new 0 0 511.947 511.947;" xml:space="preserve">
<g>
	<g>
		<path d="M508.827,115.067L434.16,40.4c-4.16-4.16-10.88-4.16-15.04,0l-259.2,259.2l-67.093-67.093c-4.16-4.16-10.88-4.16-15.04,0
			L3.12,307.173c-4.16,4.16-4.16,10.88,0,15.04l149.333,149.333c4.16,4.16,10.88,4.16,15.04,0l341.333-341.333
			C512.987,126.053,512.987,119.227,508.827,115.067z M159.92,448.933L25.627,314.64l59.627-59.627l67.093,67.093
			c4.16,4.16,10.88,4.16,15.04,0l259.2-259.093l59.627,59.627L159.92,448.933z"/>
	</g>
</g>
<g>
</g>
<g>
</g>
<g>
</g>
<g>
</g>
<g>
</g>
<g>
</g>
<g>
</g>
<g>
</g>
<g>
</g>
<g>
</g>
<g>
</g>
<g>
</g>
<g>
</g>
<g>
</g>
<g>
</g>
</svg>
